# xmcd
#
# Track frame offsets:
#	150
#	17034
#	35111
#	48786
#	64338
#	75052
#	90894
#	107439
#	122521
#	138025
#	149742
#	165312
#	179866
#	193186
#	208283
#	222797
#
# Disc length: 3220 seconds
#
# Revision: 0
# Processed by: cddbd v1.5.2PL0 Copyright (c) Steve Scherf et al.
# Submitted via: EasyCDDAExtractor 2010.6.0.0
#
DISCID=db0c9210
DTITLE=Various Artist - Memories Of Love
DYEAR=1900
DGENRE=Instrumental
TTITLE0=Francis Lai - Bilitis
TTITLE1=Luis Aguile - Quando Sali De Cuba - Guantanamera
TTITLE2=Seneville - Ballade Pour Adeline
TTITLE3=Ambros Seelos - Taiga
TTITLE4=Joe Raposo - Sing A Song
TTITLE5=Albert Morris - Feelings
TTITLE6=Buck Ram - M. Nevius - Twilight Time
TTITLE7=Daniel A. Robles - El Condor Pasa
TTITLE8=George Douglas - Georg Weiss - Wonderful World
TTITLE9=Ambros Seelos - Der Clou (The Entertainer)
TTITLE10=Roy Orbison - Joe Nelson - Blue Bayou
TTITLE11=Dirk Schweppe - Amazing Grace
TTITLE12=Cole Porter - True Love
TTITLE13=Ambros Seelos - Memories Of Love
TTITLE14=Henri Mancini - Moon River
TTITLE15=Hermann Hupfeld - As Time Goes By
EXTD=
EXTT0=
EXTT1=
EXTT2=
EXTT3=
EXTT4=
EXTT5=
EXTT6=
EXTT7=
EXTT8=
EXTT9=
EXTT10=
EXTT11=
EXTT12=
EXTT13=
EXTT14=
EXTT15=
PLAYORDER=
